# xmcd CD database file
#
# Track frame offsets:
#	150
#	23142
#	41386
#	60046
#	67972
#	91275
#	108981
#	117480
#	135079
#	158534
#	184823
#	206974
#	232437
#	247828
#	272250
#
# Disc length: 3860 seconds
#
# Revision: 6
# Processed by: cddbd v1.5PL3 Copyright (c) Steve Scherf et al.
# Submitted via: CDex 1.51
#
DISCID=bc0f120f
DTITLE=オムニバス - ヴォヤージュ 〜リラクシング・ベスト〜
DYEAR=2003
DGENRE=Soundtrack
TTITLE0=葉加瀬太郎 - エトピリカ
TTITLE1=ゴンチチ - マイ・フェイヴァリット・シングス
TTITLE2=ラファエル・フォン・ブライトン - 夜想曲第20番(遺作)
TTITLE3=松谷卓 - Toccatina
TTITLE4=クレモンティーヌ - 男と女 -GRANDIS MIX-
TTITLE5=Crystal Kay - OVER THE RAINBOW
TTITLE6=ゴンチチ - 放課後の音楽室(CMヴァージョン)
TTITLE7=アンドレ・キャニオン - めぐり逢い
TTITLE8=KiMURA AKiKO - Shape of My Heart
TTITLE9=天野清継 - AZURE in Santa Fe
TTITLE10=クライズラー＆カンパニー - 白鳥の湖
TTITLE11=Belladonna - ハバネラ
TTITLE12=古澤巌 - ショーロ・インディゴ
TTITLE13=葉加瀬太郎 - ジェラシー〜情熱大陸
TTITLE14=上々颱風 - アヴェ・マリア
EXTD=YEAR: 2003
EXTT0=
EXTT1=
EXTT2=
EXTT3=
EXTT4=
EXTT5=
EXTT6=
EXTT7=
EXTT8=
EXTT9=
EXTT10=
EXTT11=
EXTT12=
EXTT13=
EXTT14=
PLAYORDER=
